# xmcd
#
# Track frame offsets: 
#        150
#        2770
#        23250
#        26155
#        27855
#        46625
#        49547
#        52777
#        68130
#        94285
#        115655
#        117075
#        150092
#        151695
#        165252
#        198760
#        215945
#        217084
#        243280
#        250815
#        296292
#
# Disc length: 3986 seconds
#
# Revision: 12
# Processed by: cddbd v1.5.2PL0 Copyright (c) Steve Scherf et al.
# Submitted via: ExactAudioCopyFreeDBPlugin 1.0
#
DISCID=fa0f9015
DTITLE=The New Power Generation - Exodus
DYEAR=1995
DGENRE=Funk
TTITLE0=N.P.G. Operator Intro
TTITLE1=Get Wild
TTITLE2=Segue
TTITLE3=DJ Gets Jumped
TTITLE4=New Power Soul
TTITLE5=DJ Seduces Sonny
TTITLE6=Segue
TTITLE7=Count The Days
TTITLE8=The Good Life
TTITLE9=Cherry, Cherry
TTITLE10=Segue
TTITLE11=Return Of The Bump Squad
TTITLE12=Mashed Potato Girl Intro
TTITLE13=Segue
TTITLE14=Big Fun
TTITLE15=New Power Day
TTITLE16=Segue
TTITLE17=Hallucination Rain
TTITLE18=Bum Rush The Ship
TTITLE19=The Exodus Has Begun
TTITLE20=Outro
EXTD=
EXTT0=
EXTT1=
EXTT2=
EXTT3=
EXTT4=
EXTT5=
EXTT6=
EXTT7=
EXTT8=
EXTT9=
EXTT10=
EXTT11=
EXTT12=
EXTT13=
EXTT14=
EXTT15=
EXTT16=
EXTT17=
EXTT18=
EXTT19=
EXTT20=
PLAYORDER=
